<svg width="90" height="80" viewBox="0 0 90 80" fill="none" xmlns="http://www.w3.org/2000/svg">
<path d="M18.7 26.4324C16.3452 26.5062 14.1008 27.4449 12.427 29.068C10.6481 30.793 10.3 33.1203 10.3 35.4547L10.3 61.0549C10.3 61.6661 10.1829 62.2713 9.95613 62.8356C9.72927 63.3997 9.39699 63.9117 8.97879 64.3426C8.56047 64.7736 8.06451 65.1153 7.51917 65.3481C6.9739 65.5807 6.38971 65.7002 5.80005 65.7002C5.21039 65.7002 4.6262 65.5807 4.08091 65.3481C3.53558 65.1153 3.03962 64.7736 2.62134 64.3426C2.2031 63.9117 1.87084 63.3997 1.64399 62.8356C1.41715 62.2713 1.30007 61.6661 1.30005 61.0549L1.30005 35.4547C1.30006 30.9081 3.1626 26.5459 6.48091 23.3281C9.72891 20.1785 14.1114 18.379 18.7 18.3037L18.7 26.4324Z" fill="#CA6AEB"/>
<path d="M23.3 18.3037C27.8887 18.379 32.2712 20.1785 35.5192 23.3281C38.8375 26.5459 40.7 30.9081 40.7 35.4547L40.7 61.0549C40.7 61.6661 40.5829 62.2713 40.3561 62.8356C40.1293 63.3997 39.797 63.9117 39.3788 64.3426C38.9605 64.7736 38.4645 65.1153 37.9192 65.3481C37.3739 65.5807 36.7897 65.7002 36.2 65.7002C35.6104 65.7002 35.0262 65.5807 34.4809 65.3481C33.9356 65.1153 33.4396 64.7736 33.0213 64.3426C32.6031 63.9117 32.2708 63.3997 32.044 62.8356C31.8172 62.2713 31.7 61.6661 31.7 61.0549L31.7 35.4547C31.7 33.1203 31.352 30.793 29.5731 29.068C27.8993 27.4449 25.6549 26.5062 23.3 26.4324L23.3 18.3037Z" fill="#CA6AEB"/>
<path d="M14.8528 43.3501L26.4124 43.3501C26.6443 43.3501 26.9646 43.3757 27.2833 43.4267C27.6068 43.4784 27.901 43.552 28.0927 43.6386C28.5156 43.8295 28.902 44.1108 29.2288 44.4671C29.5556 44.8234 29.8168 45.2481 29.9951 45.7174C30.1734 46.1867 30.2651 46.6906 30.2651 47.2001C30.2651 47.7096 30.1734 48.2135 29.9951 48.6828C29.8168 49.1521 29.5556 49.5768 29.2288 49.9331C28.902 50.2893 28.5156 50.5707 28.0927 50.7616C27.6699 50.9524 27.2179 51.0501 26.7624 51.0501H14.8528C13.9341 51.05 13.0461 50.6522 12.3864 49.9331C11.7259 49.213 11.3501 48.2304 11.3501 47.2001C11.3501 46.1698 11.7259 45.1872 12.3864 44.4671C13.0461 43.748 13.9341 43.3502 14.8528 43.3501Z" fill="#CA6AEB"/>
<mask id="path-4-inside-1_123_2" fill="white">
<path d="M45.529 59.8516C45.3237 60.3781 45.2749 60.9068 45.2749 61.4712C45.2749 61.522 45.2757 61.5726 45.2774 61.623C45.2827 61.7844 45.2965 61.9436 45.3182 62.1001C45.3354 62.2239 45.3577 62.346 45.3847 62.4662C45.3908 62.4934 45.3972 62.5205 45.4038 62.5475C45.7663 64.0301 46.8604 65.2052 48.2585 65.6244C48.6187 65.7324 48.9991 65.7902 49.3924 65.7902H50.6303H81.8178C84.0919 65.7902 85.9353 63.8565 85.9353 61.4712C85.9353 59.0859 84.0919 57.1522 81.8178 57.1522H58.9554L69.797 45.2749H69.7423H58.4895L52.0967 52.4124L45.7038 59.5499M45.529 59.8516L45.6584 59.6284ZM45.529 59.8516C45.5553 59.7843 45.6124 59.7016 45.6584 59.6284ZM45.6584 59.6284C45.6759 59.6004 45.6919 59.5737 45.7038 59.5499ZM45.6584 59.6284L45.7038 59.5499Z"/>
</mask>
<path d="M45.2749 61.4712L44.2749 61.4712V61.4712H45.2749ZM45.2774 61.623L44.2779 61.6559L44.2779 61.6559L45.2774 61.623ZM45.3182 62.1001L44.3278 62.2378L44.3278 62.2378L45.3182 62.1001ZM45.3847 62.4662L46.3603 62.2469L46.3603 62.2469L45.3847 62.4662ZM45.4038 62.5475L46.3752 62.31L46.3751 62.3099L45.4038 62.5475ZM48.2585 65.6244L48.5457 64.6665L48.5457 64.6665L48.2585 65.6244ZM58.9554 57.1522L58.2169 56.478L56.6887 58.1522H58.9554V57.1522ZM69.797 45.2749L70.5356 45.9491L72.0637 44.2749H69.797V45.2749ZM58.4895 45.2749V44.2749H58.0427L57.7446 44.6077L58.4895 45.2749ZM52.0967 52.4124L51.3518 51.7452L51.3518 51.7452L52.0967 52.4124ZM45.7038 59.5499L44.9589 58.8828L44.8903 58.9594L44.8387 59.0483L45.7038 59.5499ZM45.529 59.8516L44.5974 59.4883C44.327 60.1815 44.2749 60.8522 44.2749 61.4712L45.2749 61.4712L46.2749 61.4713C46.2749 60.9613 46.3204 60.5748 46.4607 60.2149L45.529 59.8516ZM45.2749 61.4712H44.2749C44.2749 61.533 44.2759 61.5945 44.2779 61.6559L45.2774 61.623L46.2769 61.5901C46.2756 61.5507 46.2749 61.5111 46.2749 61.4712H45.2749ZM45.2774 61.623L44.2779 61.6559C44.2844 61.8525 44.3012 62.0467 44.3278 62.2378L45.3182 62.1001L46.3087 61.9623C46.2918 61.8405 46.281 61.7163 46.2769 61.5901L45.2774 61.623ZM45.3182 62.1001L44.3278 62.2378C44.3488 62.389 44.376 62.5384 44.409 62.6855L45.3847 62.4662L46.3603 62.2469C46.3394 62.1537 46.3221 62.0587 46.3087 61.9623L45.3182 62.1001ZM45.3847 62.4662L44.409 62.6855C44.4165 62.7189 44.4243 62.7521 44.4324 62.7852L45.4038 62.5475L46.3751 62.3099C46.37 62.2889 46.3651 62.2679 46.3603 62.2469L45.3847 62.4662ZM45.4038 62.5475L44.4324 62.7851C44.875 64.5952 46.2172 66.0563 47.9713 66.5823L48.2585 65.6244L48.5457 64.6665C47.5035 64.3541 46.6576 63.4651 46.3752 62.31L45.4038 62.5475ZM48.2585 65.6244L47.9713 66.5823C48.4235 66.7179 48.9006 66.7902 49.3924 66.7902V65.7902V64.7902C49.0977 64.7902 48.814 64.747 48.5457 64.6665L48.2585 65.6244ZM49.3924 65.7902V66.7902H50.6303V65.7902V64.7902H49.3924V65.7902ZM50.6303 65.7902V66.7902H81.8178V65.7902V64.7902H50.6303V65.7902ZM81.8178 65.7902V66.7902C84.6887 66.7902 86.9353 64.3633 86.9353 61.4712H85.9353H84.9353C84.9353 63.3498 83.4951 64.7902 81.8178 64.7902V65.7902ZM85.9353 61.4712H86.9353C86.9353 58.5792 84.6887 56.1522 81.8178 56.1522V57.1522V58.1522C83.4951 58.1522 84.9353 59.5926 84.9353 61.4712H85.9353ZM81.8178 57.1522V56.1522H58.9554V57.1522V58.1522H81.8178V57.1522ZM58.9554 57.1522L59.694 57.8264L70.5356 45.9491L69.797 45.2749L69.0584 44.6007L58.2169 56.478L58.9554 57.1522ZM69.797 45.2749V44.2749H69.7423V45.2749V46.2749H69.797V45.2749ZM69.7423 45.2749V44.2749H58.4895V45.2749V46.2749H69.7423V45.2749ZM58.4895 45.2749L57.7446 44.6077L51.3518 51.7452L52.0967 52.4124L52.8416 53.0796L59.2344 45.9421L58.4895 45.2749ZM52.0967 52.4124L51.3518 51.7452L44.9589 58.8828L45.7038 59.5499L46.4487 60.2171L52.8416 53.0796L52.0967 52.4124ZM45.529 59.8516L46.3943 60.3529L46.5236 60.1296L45.6584 59.6284L44.7931 59.1271L44.6637 59.3503L45.529 59.8516ZM45.529 59.8516L46.4607 60.2148C46.4488 60.2454 46.4388 60.2644 46.4368 60.2682C46.4343 60.2728 46.4346 60.2718 46.4402 60.2626C46.4458 60.2535 46.4531 60.2419 46.4647 60.2238C46.4744 60.2087 46.4907 60.1833 46.5054 60.1599L45.6584 59.6284L44.8113 59.0968C44.81 59.0989 44.756 59.1831 44.7324 59.2218C44.7023 59.2712 44.6436 59.3698 44.5973 59.4884L45.529 59.8516ZM45.6584 59.6284L46.5053 60.16C46.5265 60.1263 46.5633 60.0668 46.5974 59.9988L45.7038 59.5499L44.8102 59.1011C44.8136 59.0944 44.8162 59.0895 44.8177 59.0868C44.8192 59.0841 44.82 59.0827 44.8199 59.0829C44.8194 59.0837 44.817 59.0877 44.8114 59.0967L45.6584 59.6284ZM45.6584 59.6284L46.5235 60.13L46.5689 60.0515L45.7038 59.5499L44.8387 59.0483L44.7933 59.1268L45.6584 59.6284Z" fill="#CA6AEB" mask="url(#path-4-inside-1_123_2)"/>
<path d="M84.1184 23.2519C84.1274 23.5719 84.1301 23.8691 84.1247 24.147C84.1324 23.8412 84.1573 23.5425 84.1184 23.2519Z" fill="#BE00FF"/>
<path d="M84.1184 23.2519C84.1274 23.5719 84.1301 23.8691 84.1247 24.147C84.1324 23.8412 84.1573 23.5425 84.1184 23.2519Z" fill="#BE00FF"/>
<path d="M84.1184 23.2519C84.1274 23.5719 84.1301 23.8691 84.1247 24.147C84.1324 23.8412 84.1573 23.5425 84.1184 23.2519Z" fill="#BE00FF"/>
<path d="M84.1184 23.2519C84.1274 23.5719 84.1301 23.8691 84.1247 24.147C84.1324 23.8412 84.1573 23.5425 84.1184 23.2519Z" fill="#BE00FF"/>
<path d="M84.1184 23.2519C84.1274 23.5719 84.1301 23.8691 84.1247 24.147C84.1324 23.8412 84.1573 23.5425 84.1184 23.2519Z" fill="#BE00FF"/>
<path d="M84.1184 23.2519C84.1274 23.5719 84.1301 23.8691 84.1247 24.147C84.1324 23.8412 84.1573 23.5425 84.1184 23.2519Z" fill="#BE00FF"/>
<path d="M84.1184 23.2519C84.1274 23.5719 84.1301 23.8691 84.1247 24.147C84.1324 23.8412 84.1573 23.5425 84.1184 23.2519Z" fill="#BE00FF"/>
<path d="M84.1184 23.2519C84.1274 23.5719 84.1301 23.8691 84.1247 24.147C84.1324 23.8412 84.1573 23.5425 84.1184 23.2519Z" fill="#BE00FF"/>
<path d="M84.1184 23.2519C84.1274 23.5719 84.1301 23.8691 84.1247 24.147C84.1324 23.8412 84.1573 23.5425 84.1184 23.2519Z" fill="#BE00FF"/>
<path d="M84.1184 23.2519C84.1274 23.5719 84.1301 23.8691 84.1247 24.147C84.1324 23.8412 84.1573 23.5425 84.1184 23.2519Z" fill="#BE00FF"/>
<path d="M84.1184 23.2519C84.1274 23.5719 84.1301 23.8691 84.1247 24.147C84.1324 23.8412 84.1573 23.5425 84.1184 23.2519Z" fill="#BE00FF"/>
<path d="M84.1184 23.2519C84.1274 23.5719 84.1301 23.8691 84.1247 24.147C84.1324 23.8412 84.1573 23.5425 84.1184 23.2519Z" fill="#BE00FF"/>
<path d="M84.1184 23.2519C84.1274 23.5719 84.1301 23.8691 84.1247 24.147C84.1324 23.8412 84.1573 23.5425 84.1184 23.2519Z" fill="#BE00FF"/>
<path d="M84.1184 23.2519C84.1274 23.5719 84.1301 23.8691 84.1247 24.147C84.1324 23.8412 84.1573 23.5425 84.1184 23.2519Z" fill="#BE00FF"/>
<path d="M84.1184 23.2519C84.1274 23.5719 84.1301 23.8691 84.1247 24.147C84.1324 23.8412 84.1573 23.5425 84.1184 23.2519Z" fill="#BE00FF"/>
<path d="M84.1184 23.2519C84.1274 23.5719 84.1301 23.8691 84.1247 24.147C84.1324 23.8412 84.1573 23.5425 84.1184 23.2519Z" fill="#BE00FF"/>
<path d="M59.7366 43.9015L70.0347 44.0812M70.0347 44.0812L59.7353 43.9014C59.7353 43.9014 66.7633 34.7319 71.2665 28.8565M70.0347 44.0812L83.9058 25.9127C84.0444 25.4171 84.1079 24.8643 84.1235 24.2021C84.1239 24.1837 84.1243 24.1654 84.1247 24.147M71.2665 28.8565C71.2324 28.9016 71.179 28.972 71.179 28.972C71.2127 28.9276 71.1882 28.8551 71.1392 28.8543L61.0105 28.6775M71.2665 28.8565C67.2613 28.7866 61.0105 28.6775 61.0105 28.6775M50.7544 28.4985L55.8824 28.588M81.2752 19.3674C81.9904 19.5681 82.6422 20.0441 83.1483 20.7353C83.6544 21.4264 83.9919 22.3016 84.1183 23.2502L84.1184 23.2519M84.1247 24.147C84.1301 23.8691 84.1274 23.5719 84.1184 23.2519M84.1247 24.147C84.1324 23.8412 84.1573 23.5425 84.1184 23.2519M84.1184 23.2519C83.8176 21.007 82.3289 19.292 80.5074 19.2602L50.9715 18.7447C48.9001 18.7085 47.1828 20.8628 47.1358 23.5565C47.0888 26.2502 48.7299 28.4631 50.8013 28.4993L55.8824 28.588M61.0105 28.6775L55.8824 28.588" stroke="#CA6AEB"/>
</svg>
