<svg width="129" height="92" viewBox="0 0 129 92" fill="none" xmlns="http://www.w3.org/2000/svg">
<path d="M63.9212 80.4915C62.8975 80.7278 61.8338 80.7448 60.7907 80.5414C59.7477 80.3381 58.7456 79.9184 57.8419 79.3064C56.9382 78.6943 56.1505 77.9019 55.5237 76.9743C54.897 76.0467 54.4434 75.0021 54.1891 73.9002L44.1613 30.4654C43.2547 26.5382 41.8197 22.9025 38.4376 20.7583C35.0556 18.6142 30.9779 17.9124 27.1016 18.8073C23.2253 19.7023 19.868 22.1206 17.7681 25.5303C15.6683 28.94 15.9723 32.8369 16.879 36.764L26.9067 80.1989C27.1611 81.3008 27.2114 82.4384 27.0547 83.5469C26.898 84.6553 26.5373 85.7129 25.9934 86.6592C25.4494 87.6054 24.7328 88.4219 23.8844 89.0619C23.0361 89.7019 22.0726 90.153 21.0489 90.3893C20.0253 90.6256 18.9615 90.6426 17.9184 90.4393C16.8754 90.2359 15.8734 89.8163 14.9697 89.2042C14.0659 88.5922 13.2782 87.7997 12.6515 86.8721C12.0247 85.9445 11.5712 84.9 11.3168 83.7981L1.28904 40.3632C-0.524268 32.5089 0.816391 24.2653 5.01608 17.4459C9.21578 10.6264 15.9305 5.78982 23.6831 4C31.4356 2.21018 39.591 3.61377 46.3551 7.90201C53.1192 12.1902 57.9379 19.0118 59.7512 26.8662L66.55 56.1767M120.682 64.7945H120.588M120.588 64.7945C124.723 64.7945 128.075 68.3103 128.075 72.6472C128.075 76.9842 124.723 80.5 120.588 80.5H61.6331C57.8687 80.5 54.7532 77.5856 54.2255 73.7906M120.588 64.7945H79.0204L98.7323 43.1994M54.9266 69.154L54.8439 69.2966M54.9266 69.154C54.9049 69.1973 54.8759 69.2457 54.8439 69.2966M54.9266 69.154L66.55 56.1767M54.8439 69.2966C54.7603 69.4298 54.6565 69.5802 54.6088 69.7025M54.8439 69.2966L54.6088 69.7025M54.6088 69.7025C54.2355 70.6598 54.1467 71.621 54.1467 72.6472C54.1467 72.7396 54.1482 72.8316 54.1513 72.9231C54.1609 73.2167 54.1859 73.5061 54.2255 73.7906M60.0973 80.3491C58.6632 80.0461 57.3459 79.2982 56.312 78.2C55.2781 77.1018 54.574 75.7025 54.2888 74.1792C54.2646 74.05 54.2435 73.9204 54.2255 73.7906M98.7323 43.1994H78.1733L66.55 56.1767M98.7323 43.1994H98.6329M78.9276 40.7454H99.4831M99.4831 40.7454H78.9249L101.411 16.2055M99.4831 40.7454L126.529 11.1121C126.789 10.3105 126.896 9.41894 126.904 8.35277C126.904 8.32316 126.904 8.29359 126.905 8.26406M101.411 16.2055L101.24 16.3939M101.411 16.2055H60.4676M121.052 0.650895C122.486 0.953897 123.804 1.7018 124.838 2.80003C125.871 3.89826 126.576 5.29749 126.861 6.82078L126.861 6.82338M126.905 8.26406C126.906 7.81648 126.89 7.33829 126.861 6.82338M126.905 8.26406C126.909 7.77163 126.949 7.29008 126.861 6.82338M126.861 6.82338C126.183 3.21851 123.152 0.5 119.516 0.5H60.5611C56.4265 0.5 53.0748 4.0158 53.0748 8.35276C53.0748 12.6897 56.4265 16.2055 60.5611 16.2055M25.7009 51.0572L41.7905 47.3426C42.4948 47.18 43.7147 47.0577 44.4332 47.2012C45.1518 47.3448 45.8424 47.6389 46.4658 48.0668C47.0891 48.4947 47.633 49.048 48.0662 49.6951C48.4995 50.3421 48.8137 51.0703 48.991 51.8381C49.1682 52.6058 49.205 53.3981 49.0993 54.1696C48.9935 54.9411 48.7472 55.6768 48.3745 56.3346C48.0018 56.9925 47.51 57.5596 46.9272 58.0036C46.3443 58.4477 45.6818 58.7599 44.9775 58.9225L28.4004 62.7496C26.978 63.078 25.4716 62.777 24.2127 61.9128C22.9538 61.0487 22.0454 59.6921 21.6875 58.1416C21.3295 56.5911 21.5512 54.9736 22.3039 53.645C23.0566 52.3165 24.2785 51.3856 25.7009 51.0572Z" stroke="#585858"/>
</svg>
